# xmcd
#
# Track frame offsets:
#	150
#	17165
#	36622
#	53592
#	69252
#	86585
#	98310
#	110720
#	121285
#	132887
#	145567
#	159780
#	173112
#	189842
#	203815
#	218500
#	230352
#	244735
#	255805
#	269500
#
# Disc length: 3881 seconds
#
# Revision: 1
# Processed by: cddbd v1.5.2PL0 Copyright (c) Steve Scherf et al.
# Submitted via: audiograbber 1.83.01
#
DISCID=fe0f2714
DTITLE=Reader's Digest Country - An All-Star Treasury - Disk 1
DYEAR=2007
DGENRE=Country
TTITLE0=Kenny Rogers - Buy Me A Rose
TTITLE1=Kenny Rogers - She Believes In Me
TTITLE2=Kenny Rogers - You Decorated My Life
TTITLE3=Kenny Rogers - Through The Years
TTITLE4=Kenny Rogers - Lady
TTITLE5=Patsy Cline - Wlakin' After Midnight
TTITLE6=Patsy Cline - A Poor Man's Roses (Or A Rich Man's Gold)
TTITLE7=Patsy Cline - Lovesick Blues
TTITLE8=Patsy Cline - Lonely Street
TTITLE9=Patsy Cline - Just A Closer Walk With Thee
TTITLE10=Lee Greenwood - I.O.U.
TTITLE11=Lee Greenwood - Hearts Are'nt Made To Break (They're Made To Love)
TTITLE12=Lee Greenwood - Ring On her Finger, Time On Her Hands
TTITLE13=Lee Greenwood - Dixie Road
TTITLE14=Lee Greenwood - God Bless The U.S.A.
TTITLE15=Brenda Lee - I'm Sorry
TTITLE16=Brenda Lee - i Want To Be Wanted
TTITLE17=Brenda Lee - Fool # 1
TTITLE18=Brenda Lee - Nobody Wins
TTITLE19=Brenda Lee - Big Four Poster Bed
EXTD=
EXTT0=
EXTT1=
EXTT2=
EXTT3=
EXTT4=
EXTT5=
EXTT6=
EXTT7=
EXTT8=
EXTT9=
EXTT10=
EXTT11=
EXTT12=
EXTT13=
EXTT14=
EXTT15=
EXTT16=
EXTT17=
EXTT18=
EXTT19=
PLAYORDER=
